<svg xmlns="http://www.w3.org/2000/svg" viewBox="0 0 1200 900" role="img" aria-labelledby="title desc">
  <title id="title">Auckland</title>
  <desc id="desc">Platzhalterbild von Auckland am Wasser</desc>
  <rect width="1200" height="900" fill="#dbe8e2"/>
  <path d="M0 620 C220 570 420 640 650 600 C860 565 1020 600 1200 560 L1200 900 L0 900 Z" fill="#0f5b5b"/>
  <path d="M0 725 C230 670 450 750 680 710 C890 675 1030 700 1200 675 L1200 900 L0 900 Z" fill="#e7d1ad"/>
  <rect x="465" y="330" width="75" height="265" rx="8" fill="#315f55"/>
  <rect x="580" y="245" width="95" height="350" rx="8" fill="#24413c"/>
  <path d="M645 245 L625 165 L665 165 Z" fill="#24413c"/>
  <rect x="720" y="375" width="80" height="220" rx="8" fill="#386b61"/>
  <path d="M130 545 C280 420 420 445 540 550" stroke="#6e9288" stroke-width="30" fill="none" stroke-linecap="round"/>
</svg>
