<svg xmlns="http://www.w3.org/2000/svg" viewBox="0 0 1600 1000" role="img" aria-labelledby="title desc">
  <title id="title">Portugal Küste</title>
  <desc id="desc">Platzhalterbild der portugiesischen Atlantikküste</desc>
  <rect width="1600" height="1000" fill="#cfe2df"/>
  <path d="M0 510 C250 430 440 470 650 430 C880 385 1080 440 1600 355 L1600 1000 L0 1000 Z" fill="#0f5b5b"/>
  <path d="M0 640 C260 590 490 625 730 585 C950 548 1160 595 1600 530 L1600 1000 L0 1000 Z" fill="#f7f1e4" opacity="0.92"/>
  <path d="M0 690 C250 635 450 705 650 675 C850 645 1050 690 1600 610 L1600 1000 L0 1000 Z" fill="#d2ad78"/>
  <path d="M890 260 L1085 650 L690 650 Z" fill="#a76b47"/>
  <circle cx="1260" cy="210" r="76" fill="#d9894b" opacity="0.75"/>
</svg>
